<svg width="7" height="11" viewBox="0 0 7 11" fill="none" xmlns="http://www.w3.org/2000/svg">
<path fill-rule="evenodd" clip-rule="evenodd" d="M0.584817 0.678658C0.651582 0.611724 0.730898 0.558618 0.818219 0.522384C0.90554 0.486149 0.999151 0.467499 1.09369 0.467499C1.18823 0.467499 1.28184 0.486149 1.36916 0.522384C1.45649 0.558618 1.5358 0.611724 1.60257 0.678658L5.91507 4.99116C5.982 5.05793 6.03511 5.13724 6.07134 5.22456C6.10758 5.31188 6.12623 5.40549 6.12623 5.50003C6.12623 5.59457 6.10758 5.68819 6.07134 5.77551C6.03511 5.86283 5.982 5.94214 5.91507 6.00891L1.60257 10.3214C1.46761 10.4564 1.28456 10.5322 1.09369 10.5322C0.902827 10.5322 0.719779 10.4564 0.584817 10.3214C0.449855 10.1864 0.374034 10.0034 0.374034 9.81254C0.374034 9.62167 0.449855 9.43862 0.584817 9.30366L4.38988 5.50003L0.584817 1.69641C0.517882 1.62964 0.464777 1.55033 0.428543 1.46301C0.392309 1.37569 0.373657 1.28207 0.373657 1.18753C0.373657 1.09299 0.392309 0.999381 0.428543 0.91206C0.464777 0.824739 0.517882 0.745424 0.584817 0.678658Z" fill="#A89365"/>
</svg>
